<?xml version="1.0" standalone="no"?>
<!DOCTYPE svg PUBLIC "-//W3C//DTD SVG 20010904//EN"
 "http://www.w3.org/TR/2001/REC-SVG-20010904/DTD/svg10.dtd">
<svg version="1.0" xmlns="http://www.w3.org/2000/svg"
 width="301.000000pt" height="301.000000pt" viewBox="0 0 301.000000 301.000000"
 preserveAspectRatio="xMidYMid meet">
<metadata>
Created by potrace 1.14, written by Peter Selinger 2001-2017
</metadata>
<g transform="translate(0.000000,301.000000) scale(0.100000,-0.100000)"
fill="#000000" stroke="none">
<path d="M1272 2770 c-22 -14 -41 -39 -57 -74 -13 -29 -43 -83 -67 -119 -24
-37 -55 -86 -69 -110 -25 -42 -29 -44 -85 -50 -67 -7 -234 -56 -291 -86 -149
-77 -242 -176 -243 -259 0 -67 17 -92 133 -189 55 -47 105 -72 178 -93 l77
-22 21 21 c11 11 28 21 36 21 33 0 41 -41 44 -220 4 -288 22 -439 67 -565 14
-38 26 -76 27 -84 3 -22 -123 -84 -273 -135 -102 -34 -162 -48 -245 -56 -163
-17 -150 -11 -174 -85 -24 -73 -25 -78 -11 -70 5 3 16 27 24 53 8 26 15 39 15
29 1 -10 -6 -34 -14 -54 -17 -40 -20 -67 -4 -41 17 30 26 21 33 -32 6 -46 26
-81 26 -45 0 11 5 15 14 12 8 -3 20 1 26 9 17 20 46 18 62 -5 14 -20 14 -20
26 0 18 29 40 23 51 -14 8 -29 9 -30 11 -7 1 14 2 32 1 42 -1 9 3 19 8 22 6 4
8 13 4 21 -3 9 1 15 11 15 9 0 16 7 16 15 0 18 14 19 41 5 15 -9 17 -13 7 -24
-7 -7 -19 -11 -25 -9 -7 3 -13 -2 -13 -10 0 -10 6 -13 21 -10 17 5 20 2 17
-18 -2 -19 -10 -25 -35 -27 -33 -3 -44 -17 -20 -25 16 -5 47 3 47 13 0 4 12 6
28 3 23 -3 24 -2 7 6 -20 10 -19 10 3 17 26 8 28 19 5 33 -17 10 -17 10 0 11
9 0 17 -4 17 -10 0 -5 5 -10 10 -10 6 0 10 8 10 17 0 14 3 14 12 5 10 -10 10
-15 -1 -22 -12 -7 -12 -11 2 -24 8 -9 20 -16 26 -16 11 0 4 -27 -12 -48 -6 -7
-11 -25 -12 -40 -2 -24 -14 -65 -46 -150 -5 -13 -14 -20 -19 -17 -6 4 -7 -2
-2 -17 6 -15 37 -38 88 -65 84 -45 104 -51 104 -30 0 7 -33 27 -74 46 l-74 34
5 36 c3 20 10 41 15 48 5 6 8 17 7 25 -2 14 3 31 32 95 10 24 19 45 19 48 0
13 64 135 71 135 17 0 19 -20 2 -20 -17 -1 -17 -1 0 -14 19 -15 24 -42 5 -30
-8 5 -9 2 -5 -10 4 -10 7 -20 7 -22 0 -2 7 -4 16 -4 11 0 14 6 9 20 -13 41 49
104 70 70 3 -5 -3 -10 -14 -10 -14 0 -22 -8 -27 -27 -3 -16 -7 -34 -10 -40 -5
-20 23 -15 30 4 6 14 9 15 16 4 12 -20 2 -38 -23 -45 l-22 -6 23 -20 c15 -12
21 -24 16 -32 -5 -7 -7 -21 -6 -30 2 -10 -2 -18 -7 -18 -6 0 -11 9 -11 21 0
11 -4 18 -9 14 -5 -3 -12 3 -16 14 -6 20 -33 36 -44 26 -3 -3 1 -10 9 -15 12
-7 12 -12 -3 -28 -23 -26 -22 -31 11 -30 35 1 72 -18 72 -37 0 -15 -25 -21
-33 -7 -2 4 -2 1 0 -6 2 -8 6 -25 9 -38 4 -15 2 -24 -5 -24 -6 0 -11 9 -11 19
0 10 -7 21 -15 25 -8 3 -15 1 -15 -4 0 -6 -9 -19 -20 -30 -11 -11 -16 -20 -10
-20 6 0 10 -8 10 -17 1 -24 24 -53 42 -53 43 0 53 -66 12 -76 l-26 -7 32 -13
c42 -18 60 -18 60 1 0 8 5 15 10 15 6 0 10 -7 10 -15 0 -8 3 -15 8 -16 14 0
147 -1 176 0 27 1 28 2 14 23 -11 16 -26 22 -59 23 -24 1 -52 6 -62 10 -14 6
-20 2 -24 -14 -5 -21 -23 -30 -23 -11 0 6 -9 10 -19 10 -24 0 -36 16 -20 26 7
4 47 6 90 6 43 -1 80 2 83 6 3 5 -5 27 -17 51 -12 23 -23 38 -25 32 -5 -14
-42 -14 -42 0 0 6 9 13 20 16 23 6 23 6 9 56 -10 38 -20 43 -84 40 -17 -1 -20
5 -18 35 1 21 2 45 2 55 1 10 9 17 21 17 17 0 19 5 14 28 -3 15 -10 39 -16 54
-7 19 -6 60 2 135 7 59 13 120 13 135 l0 27 25 -20 c26 -20 174 -199 224 -270
l28 -39 -15 -78 c-34 -190 -31 -255 19 -374 28 -66 35 -63 101 47 30 49 30 52
24 145 -4 52 -8 133 -8 178 -1 94 -6 87 120 193 61 52 157 150 196 201 14 18
23 25 19 15 -3 -10 -6 -31 -7 -45 0 -15 -3 -21 -6 -14 -9 22 -20 13 -20 -18 0
-31 11 -40 21 -17 11 22 -2 -158 -15 -207 -6 -26 -18 -50 -25 -53 -18 -7 -18
-23 0 -37 9 -7 12 -25 9 -53 -5 -39 -8 -43 -32 -43 -29 0 -32 -4 -67 -90 -10
-25 -21 -47 -24 -50 -11 -9 -40 -54 -40 -62 0 -5 19 -8 41 -8 36 0 40 2 29 15
-7 8 -8 15 -2 15 5 0 15 -7 22 -15 7 -8 21 -15 31 -15 11 0 19 -6 19 -13 0
-10 -14 -14 -47 -13 -27 1 -52 4 -58 7 -12 7 -67 -22 -72 -38 -5 -13 105 -22
144 -11 33 9 38 5 24 -19 -6 -10 -11 -13 -11 -7 0 15 -63 5 -73 -12 -11 -19
-31 -18 -23 1 4 12 -4 15 -39 15 -35 0 -47 -5 -64 -27 -12 -14 -19 -28 -17
-30 6 -7 217 17 230 25 6 4 19 5 29 4 9 -2 17 1 17 6 0 6 9 8 20 5 12 -3 20 0
20 7 0 7 8 9 20 5 29 -9 25 14 -5 25 -26 10 -32 24 -15 35 8 5 8 11 0 20 -12
15 3 30 20 20 17 -10 11 4 -10 25 -12 12 -24 18 -29 16 -4 -3 -6 6 -3 19 3 16
10 24 21 23 12 -2 15 4 13 30 -4 35 2 39 25 17 8 -8 20 -12 26 -8 8 5 8 8 -1
11 -7 2 -12 10 -12 18 0 8 -9 14 -20 14 -11 0 -20 5 -20 11 0 6 9 9 20 6 22
-6 28 8 8 16 -9 4 -8 6 3 6 9 1 22 -10 29 -24 14 -26 37 -37 83 -40 24 -2 27
2 27 30 0 29 -2 32 -25 27 -20 -3 -24 -9 -20 -26 4 -14 3 -17 -3 -8 -5 7 -16
10 -27 6 -15 -6 -17 -4 -13 14 7 24 -3 34 -36 37 -36 4 -37 5 -31 15 11 17 70
11 92 -10 l22 -20 -6 38 c-6 34 -5 36 10 23 15 -12 17 -11 17 3 0 38 18 12 25
-36 12 -81 12 -82 20 -100 5 -14 2 -18 -13 -18 -12 0 -23 -4 -26 -9 -3 -5 -21
-9 -40 -9 -18 0 -43 -5 -53 -11 -11 -6 -23 -7 -27 -4 -3 3 -6 -1 -6 -10 0 -8
-2 -22 -5 -30 -4 -9 10 -22 40 -38 46 -25 53 -37 34 -56 -18 -18 -7 -32 19
-22 32 12 29 51 -8 79 -16 12 -27 26 -25 30 3 5 -5 6 -17 2 -13 -3 -19 -1 -15
5 4 6 21 13 39 16 55 9 122 29 135 41 10 9 10 22 -1 64 -8 28 -10 54 -6 57 5
3 10 -1 13 -7 6 -17 13 -9 21 25 6 26 5 27 -13 18 -30 -17 -43 -13 -40 12 1
12 -1 29 -4 37 -17 47 -15 60 9 60 13 0 24 5 24 10 0 6 5 10 11 10 6 0 9 -6 6
-14 -6 -16 19 -43 30 -32 4 4 13 -4 20 -16 l12 -23 1 22 c0 12 -7 28 -15 37
-8 8 -15 24 -15 35 0 23 -10 27 -26 11 -11 -11 -54 -2 -54 11 0 5 7 9 15 9 19
0 19 11 0 36 -14 19 -14 19 -15 0 0 -11 -2 -17 -5 -14 -3 3 -3 24 1 46 4 28
12 42 25 45 10 3 22 1 25 -4 3 -5 0 -9 -6 -9 -7 0 -9 -13 -4 -38 7 -38 23 -67
32 -57 8 8 31 -28 32 -48 0 -11 5 -16 13 -13 6 3 20 9 30 12 19 7 23 34 6 51
-7 7 -6 12 5 16 10 4 13 1 9 -9 -3 -9 2 -14 17 -14 17 0 20 4 14 18 -4 9 -8
32 -8 50 0 19 -4 31 -10 29 -12 -4 -35 22 -36 40 0 15 53 33 79 26 28 -7 28
-56 0 -82 -12 -11 -18 -24 -14 -30 10 -18 25 -13 25 8 0 11 6 26 13 33 15 16
16 80 2 90 -14 11 14 10 56 -2 24 -7 39 -18 44 -33 6 -19 8 -20 12 -4 3 10 10
17 16 14 7 -2 44 -10 82 -17 39 -6 80 -14 93 -16 13 -3 20 -9 17 -14 -3 -6 0
-10 8 -10 17 0 47 -42 47 -65 0 -8 -7 -15 -15 -15 -8 0 -15 5 -15 11 0 6 -7 9
-15 5 -8 -3 -15 0 -16 7 0 7 -4 2 -9 -10 -11 -28 -30 -30 -30 -4 0 10 -7 22
-16 25 -22 9 -24 8 -24 -10 0 -11 -6 -13 -19 -9 -11 3 -22 1 -26 -5 -3 -5 0
-10 7 -10 20 0 42 -40 29 -53 -14 -14 -14 -24 2 -30 7 -3 13 5 13 20 2 25 11
40 19 31 10 -9 -26 -108 -39 -108 -13 0 -41 -58 -33 -67 8 -7 77 69 77 84 0 9
3 13 7 10 7 -8 43 21 43 35 0 5 13 23 29 41 16 17 43 51 60 74 29 40 30 43 13
63 -15 18 -28 22 -87 22 -49 0 -105 10 -190 35 -66 19 -162 45 -212 58 -105
27 -169 56 -245 113 -29 21 -61 42 -71 45 -16 6 -16 9 6 44 58 94 113 362 133
653 7 88 21 120 54 120 9 0 25 -9 35 -20 15 -17 17 -31 12 -92 -4 -40 -9 -83
-13 -95 -6 -22 -4 -23 53 -23 150 0 353 121 353 210 0 15 -15 50 -33 76 -35
52 -238 233 -322 290 -110 73 -115 82 -115 225 0 61 -5 130 -12 152 -14 48
-62 98 -120 128 -52 26 -331 116 -421 135 -102 21 -204 19 -245 -6z m200 -661
c87 -18 300 -84 348 -108 25 -13 80 -46 122 -74 59 -40 78 -57 78 -75 0 -22
-3 -23 -48 -18 -53 6 -70 10 -121 33 -39 17 -115 23 -119 8 -1 -5 6 -11 18
-13 33 -5 12 -22 -28 -22 -21 0 -62 -7 -92 -16 -117 -33 -149 -34 -235 -7 -57
18 -101 25 -152 25 -41 -1 -73 3 -73 8 0 6 17 10 38 10 21 0 47 7 58 15 17 13
15 14 -36 15 -39 0 -69 -7 -104 -25 -47 -24 -72 -30 -108 -27 -16 2 -18 13
-18 91 0 121 7 150 39 163 64 25 342 36 433 17z m583 -279 c3 -5 1 -10 -4 -10
-6 0 -11 5 -11 10 0 6 2 10 4 10 3 0 8 -4 11 -10z m-1039 -37 c-10 -10 -19 5
-10 18 6 11 8 11 12 0 2 -7 1 -15 -2 -18z m979 18 c3 -5 1 -12 -5 -16 -5 -3
-10 1 -10 9 0 18 6 21 15 7z m-621 -21 c61 -23 68 -37 49 -94 -39 -115 -78
-140 -211 -134 -94 4 -95 4 -127 40 -28 30 -34 46 -40 101 -4 36 -4 71 0 77
14 22 51 29 162 29 90 1 123 -3 167 -19z m571 0 c23 -19 19 -98 -7 -150 -32
-63 -79 -85 -183 -85 -62 1 -86 5 -108 19 -37 25 -77 105 -77 155 0 37 3 40
38 52 84 28 307 34 337 9z m65 -32 c0 -15 -42 -326 -54 -399 -14 -87 -45 -181
-64 -193 -4 -3 -14 -1 -21 3 -9 6 -10 11 -2 15 23 15 9 24 -28 19 -48 -7 -126
21 -236 84 -117 68 -214 70 -300 7 -103 -75 -229 -115 -259 -83 -31 32 -77
553 -48 535 7 -4 12 -23 12 -43 0 -48 34 -118 71 -143 65 -47 232 -47 298 -1
27 20 66 87 80 140 17 61 70 51 84 -15 9 -46 50 -108 90 -138 24 -18 43 -21
121 -21 67 0 102 5 131 18 62 28 105 104 105 184 0 18 5 33 10 33 6 0 10 -1
10 -2z m-1020 -912 c0 -3 -4 -8 -10 -11 -5 -3 -10 -1 -10 4 0 6 5 11 10 11 6
0 10 -2 10 -4z m1140 -35 c0 -5 -7 -11 -15 -15 -15 -5 -20 5 -8 17 9 10 23 9
23 -2z m-1234 -21 c8 0 14 -5 14 -11 0 -7 -9 -9 -24 -5 -29 7 -35 -5 -28 -54
5 -31 4 -33 -9 -20 -17 16 -33 51 -31 63 1 4 -7 7 -19 7 -11 0 -17 5 -14 10 4
6 21 8 39 4 26 -4 35 -2 41 13 5 12 9 14 12 6 3 -7 11 -13 19 -13z m1341 -6
c-3 -3 -12 -4 -19 -1 -8 3 -5 6 6 6 11 1 17 -2 13 -5z m-170 -36 c-6 -4 -15
-2 -19 5 -14 21 -9 28 12 15 13 -9 16 -14 7 -20z m133 22 c11 -8 7 -9 -15 -4
-37 8 -45 14 -19 14 10 0 26 -5 34 -10z m-1446 -6 c21 -8 20 -21 -1 -27 -14
-4 -12 -5 5 -6 34 -2 25 -33 -15 -45 -16 -5 -23 -2 -28 13 -3 11 -15 23 -26
26 -25 8 -24 19 4 33 26 13 40 14 61 6z m143 -40 c11 -23 9 -32 -14 -73 -15
-25 -31 -47 -35 -49 -4 -2 -5 -9 -2 -16 3 -8 -2 -16 -10 -19 -9 -4 -16 -13
-16 -22 0 -8 -4 -15 -10 -15 -12 0 -13 13 -3 24 5 4 6 34 5 67 -4 57 -3 59 21
59 21 0 24 -4 20 -22 -4 -22 -4 -22 10 -5 10 12 13 31 10 58 -6 45 6 51 24 13z
m-236 -4 c16 0 29 -4 29 -10 0 -5 -26 -9 -58 -9 -45 1 -59 5 -59 16 0 11 8 13
30 9 16 -3 42 -6 58 -6z m1439 0 c0 -5 -7 -10 -15 -10 -8 0 -15 5 -15 10 0 6
7 10 15 10 8 0 15 -4 15 -10z m50 -4 c0 -8 -4 -18 -10 -21 -5 -3 -10 3 -10 14
0 12 5 21 10 21 6 0 10 -6 10 -14z m-1694 -11 c-17 -17 -30 -20 -21 -5 3 6 -1
10 -9 10 -8 0 -18 -5 -21 -10 -4 -6 -11 -7 -17 -4 -16 10 13 24 50 24 30 0 32
-2 18 -15z m569 6 c3 -5 1 -12 -5 -16 -5 -3 -10 1 -10 9 0 18 6 21 15 7z
m-490 -12 c11 -16 1 -19 -13 -3 -7 8 -8 14 -3 14 5 0 13 -5 16 -11z m-38 -5
c-3 -3 -12 -4 -19 -1 -8 3 -5 6 6 6 11 1 17 -2 13 -5z m151 -11 c-20 -3 -28
-10 -28 -24 0 -11 -4 -18 -9 -15 -5 3 -7 15 -4 26 4 15 13 20 37 19 30 -2 30
-2 4 -6z m-189 -12 c19 -12 5 -30 -19 -24 -14 4 -22 -1 -29 -18 -9 -23 -10
-22 -10 8 -1 29 4 35 39 42 3 0 11 -3 19 -8z m1543 -16 c3 -13 2 -22 -2 -20
-11 7 -20 45 -10 45 4 0 10 -11 12 -25z m-1285 -1 c-3 -3 -12 -4 -19 -1 -8 3
-5 6 6 6 11 1 17 -2 13 -5z m243 -24 c0 -6 -7 -10 -15 -10 -8 0 -15 2 -15 4 0
2 -3 12 -7 21 -5 15 -3 16 15 6 12 -7 22 -16 22 -21z m-506 -80 c-5 -22 -9
-28 -11 -17 -3 9 -9 17 -14 17 -6 0 -3 7 5 16 10 10 14 25 11 42 l-5 27 10
-25 c7 -14 8 -40 4 -60z m316 64 c0 -8 -4 -12 -10 -9 -5 3 -10 10 -10 16 0 5
5 9 10 9 6 0 10 -7 10 -16z m1790 0 c0 -3 -7 -12 -15 -20 -12 -13 -15 -13 -15
-1 0 7 3 17 7 20 8 8 23 9 23 1z m-2033 -51 c-3 -10 -5 -2 -5 17 0 19 2 27 5
18 2 -10 2 -26 0 -35z m43 33 c0 -3 -4 -8 -10 -11 -5 -3 -10 -1 -10 4 0 6 5
11 10 11 6 0 10 -2 10 -4z m2060 -11 c0 -9 -5 -21 -10 -28 -6 -7 -17 -21 -25
-32 l-15 -20 6 20 c14 47 27 75 35 75 5 0 9 -7 9 -15z m-653 -37 c-3 -8 -6 -5
-6 6 -1 11 2 17 5 13 3 -3 4 -12 1 -19z m73 -10 c0 -13 -23 -5 -28 10 -2 7 2
10 12 6 9 -3 16 -11 16 -16z m-50 -58 c0 -26 -3 -28 -30 -24 -21 4 -32 1 -36
-10 -3 -9 -16 -16 -28 -16 -21 1 -21 1 -1 12 11 6 23 16 26 21 4 5 16 7 28 4
25 -6 28 14 6 36 -11 12 -12 16 -2 20 20 7 37 -13 37 -43z m-111 -6 c-11 -12
-18 -27 -14 -33 3 -6 2 -11 -4 -11 -19 0 -23 21 -7 39 9 10 16 26 16 36 0 14
3 15 15 5 14 -12 13 -16 -6 -36z m-792 -130 c-3 -3 -12 -4 -19 -1 -8 3 -5 6 6
6 11 1 17 -2 13 -5z m37 -30 c18 -7 22 -34 5 -34 -5 0 -8 4 -4 9 8 14 -9 21
-25 10 -13 -8 -13 -10 0 -19 11 -8 7 -9 -15 -4 -16 4 -36 12 -43 18 -9 9 -5
12 20 14 18 2 34 5 37 7 6 6 6 6 25 -1z m-199 -33 c-3 -6 -11 -11 -16 -11 -5
0 -4 6 3 14 14 16 24 13 13 -3z m825 3 c0 -8 -7 -14 -15 -14 -8 0 -15 5 -15
11 0 5 -4 7 -10 4 -5 -3 -10 -2 -10 3 0 5 11 10 25 10 15 0 25 -6 25 -14z
m-671 -51 c0 -16 -3 -22 -6 -15 -2 6 -13 12 -24 12 -19 0 -25 11 -12 23 3 4
15 7 25 7 13 0 18 -7 17 -27z m678 18 c2 -1 -4 -9 -13 -19 -10 -12 -25 -17
-44 -14 -25 4 -27 7 -18 22 9 14 54 21 75 11z m-634 -28 c-7 -2 -19 -2 -25 0
-7 3 -2 5 12 5 14 0 19 -2 13 -5z"/>
<path d="M1277 1743 c-4 -3 -7 -21 -7 -40 0 -37 23 -46 38 -15 16 30 -10 76
-31 55z"/>
<path d="M1780 1724 c-10 -25 1 -64 19 -64 16 0 31 50 21 71 -15 26 -29 24
-40 -7z"/>
<path d="M1436 1585 c-3 -8 -1 -15 4 -15 6 0 10 7 10 15 0 8 -2 15 -4 15 -2 0
-6 -7 -10 -15z"/>
<path d="M1422 1523 c-12 -30 -32 -125 -32 -148 0 -18 39 -19 109 -3 37 8 51
16 51 28 0 10 3 32 6 49 4 19 2 31 -4 31 -6 0 -12 -19 -14 -42 l-3 -43 -55
-12 c-35 -8 -58 -9 -65 -2 -6 6 -4 37 7 87 17 83 17 99 0 55z"/>
<path d="M1111 784 c0 -11 3 -14 6 -6 3 7 2 16 -1 19 -3 4 -6 -2 -5 -13z"/>
<path d="M1770 756 c-5 -15 -10 -39 -9 -54 1 -20 5 -13 14 23 15 54 12 74 -5
31z"/>
<path d="M1111 738 c1 -13 5 -36 9 -53 7 -26 8 -22 9 23 0 29 -3 52 -9 52 -5
0 -9 -10 -9 -22z"/>
<path d="M2334 726 c-8 -22 3 -33 18 -18 9 9 9 15 0 24 -9 9 -13 7 -18 -6z"/>
<path d="M1790 701 c0 -6 5 -13 10 -16 6 -3 10 1 10 9 0 9 -4 16 -10 16 -5 0
-10 -4 -10 -9z"/>
<path d="M2331 654 c-7 -16 -17 -24 -25 -21 -22 9 -41 -48 -29 -86 7 -22 6
-38 -1 -49 -12 -19 -3 -34 14 -23 7 4 9 22 5 50 -7 42 -7 43 21 37 24 -4 26
-2 21 17 -3 11 -1 21 4 21 5 0 9 9 9 21 0 11 5 29 10 40 8 14 7 19 -3 19 -8 0
-19 -12 -26 -26z"/>
<path d="M2580 666 c0 -9 5 -16 10 -16 6 0 10 4 10 9 0 6 -4 13 -10 16 -5 3
-10 -1 -10 -9z"/>
<path d="M2370 631 c0 -16 -6 -32 -12 -35 -10 -5 -10 -7 0 -12 6 -3 12 -12 12
-20 0 -8 4 -14 8 -14 11 0 12 99 1 106 -5 3 -9 -8 -9 -25z"/>
<path d="M2420 589 c0 -5 5 -7 10 -4 6 3 10 8 10 11 0 2 -4 4 -10 4 -5 0 -10
-5 -10 -11z"/>
<path d="M366 565 c-3 -8 -1 -15 4 -15 6 0 10 7 10 15 0 8 -2 15 -4 15 -2 0
-6 -7 -10 -15z"/>
<path d="M2226 515 c4 -8 10 -12 15 -9 11 6 2 24 -11 24 -5 0 -7 -7 -4 -15z"/>
<path d="M2344 506 c-1 -11 -5 -31 -9 -42 -5 -16 -2 -22 12 -26 15 -4 18 2 21
38 1 26 -3 44 -10 47 -8 2 -14 -4 -14 -17z"/>
<path d="M2182 500 c0 -14 2 -19 5 -12 2 6 2 18 0 25 -3 6 -5 1 -5 -13z"/>
<path d="M770 500 c0 -5 5 -10 11 -10 5 0 7 5 4 10 -3 6 -8 10 -11 10 -2 0 -4
-4 -4 -10z"/>
<path d="M910 501 c0 -5 6 -11 13 -13 17 -7 38 2 31 13 -7 12 -44 12 -44 0z"/>
<path d="M2490 489 c0 -18 2 -19 15 -9 15 12 12 30 -6 30 -5 0 -9 -10 -9 -21z"/>
<path d="M2061 491 c-10 -7 -10 -10 -1 -16 6 -4 16 -3 22 3 13 13 -4 23 -21
13z"/>
<path d="M2210 470 c0 -5 7 -10 15 -10 8 0 15 5 15 10 0 6 -7 10 -15 10 -8 0
-15 -4 -15 -10z"/>
<path d="M2105 460 c-3 -5 -2 -10 4 -10 5 0 13 5 16 10 3 6 2 10 -4 10 -5 0
-13 -4 -16 -10z"/>
<path d="M2446 445 c-4 -14 -2 -33 4 -43 8 -14 9 -12 4 9 -3 15 -1 30 5 33 13
9 15 26 2 26 -5 0 -12 -11 -15 -25z"/>
<path d="M2386 432 c-15 -18 -15 -20 2 -35 21 -19 42 -23 24 -5 -16 16 -15 45
1 51 7 3 7 6 1 6 -6 1 -18 -7 -28 -17z"/>
<path d="M675 430 c3 -5 8 -10 11 -10 2 0 4 5 4 10 0 6 -5 10 -11 10 -5 0 -7
-4 -4 -10z"/>
<path d="M750 430 c-8 -5 -11 -12 -7 -16 4 -4 13 -2 19 4 15 15 7 24 -12 12z"/>
<path d="M2298 433 c7 -3 16 -2 19 1 4 3 -2 6 -13 5 -11 0 -14 -3 -6 -6z"/>
<path d="M1090 400 c0 -5 7 -10 15 -10 8 0 15 5 15 10 0 6 -7 10 -15 10 -8 0
-15 -4 -15 -10z"/>
<path d="M2313 403 c-23 -9 -14 -20 12 -15 14 2 25 8 25 13 0 10 -17 11 -37 2z"/>
<path d="M2421 364 c-12 -14 -11 -15 8 -12 12 1 22 7 22 13 1 16 -15 15 -30
-1z"/>
<path d="M925 360 c-3 -6 1 -7 9 -4 18 7 21 14 7 14 -6 0 -13 -4 -16 -10z"/>
<path d="M2358 363 c7 -3 16 -2 19 1 4 3 -2 6 -13 5 -11 0 -14 -3 -6 -6z"/>
<path d="M2103 300 c1 -19 8 -25 27 -27 14 -1 18 0 9 3 -9 3 -21 15 -28 27
-11 22 -11 22 -8 -3z"/>
<path d="M683 286 c-9 -11 -9 -15 0 -19 7 -3 14 3 14 14 2 22 2 22 -14 5z"/>
<path d="M2168 273 c7 -3 16 -2 19 1 4 3 -2 6 -13 5 -11 0 -14 -3 -6 -6z"/>
<path d="M1860 105 c0 -16 16 -20 24 -6 3 5 -1 11 -9 15 -9 3 -15 0 -15 -9z"/>
<path d="M1140 59 l-25 -6 25 -6 c60 -16 117 -27 138 -27 22 0 22 1 6 25 -14
22 -23 25 -68 23 -28 -1 -62 -5 -76 -9z"/>
</g>
</svg>
